<svg xmlns="http://www.w3.org/2000/svg" viewBox="0 0 470 227.7"><path fill="#FFF" d="M222.9 224H5.3c-1.1 0-2-.9-2-2V68c0-1.1.9-2 2-2h217.6c1.1 0 2 .9 2 2v154c0 1.1-.9 2-2 2zm239.6 0H244.9c-1.1 0-2-.9-2-2V68c0-1.1.9-2 2-2h217.6c1.1 0 2 .9 2 2v154c0 1.1-.9 2-2 2z"/><path fill="#1194F6" d="M155.6 163h-83c-1.1 0-2-.9-2-2v-32c0-1.1.9-2 2-2h83c1.1 0 2 .9 2 2v32c0 1.1-.9 2-2 2z"/><text transform="translate(86.847 150.091)" fill="#FFF" font-family="'Roboto-Medium'" font-size="14">BUTTON</text><path fill="#17BED7" d="M383.2 163h-59c-9.9 0-18-8.1-18-18s8.1-18 18-18h59c9.9 0 18 8.1 18 18s-8.1 18-18 18z"/><text transform="translate(326.415 150.091)" fill="#FFF" font-family="'Roboto-Medium'" font-size="14">BUTTON</text><text transform="translate(3.341 54.666)" font-family="'Roboto-Light'" font-size="16">Material Design Button</text><text transform="translate(242.91 54.666)" font-family="'Roboto-Light'" font-size="16">Instabridge Button</text><text transform="translate(3.341 22)" font-family="'Roboto-Bold'" font-size="18">Differences between MD and IB buttons</text></svg>