<svg xmlns="http://www.w3.org/2000/svg" viewBox="0 0 250 128"><text transform="translate(1.772 16.333)" font-family="'Roboto-Light'" font-size="16">Measurements</text><path d="M121.1 85.6h-59c-9.9 0-18-8.1-18-18s8.1-18 18-18h59c9.9 0 18 8.1 18 18s-8.1 18-18 18z"/><text transform="translate(64.3 72.656)" fill="#FFF" font-family="'Roboto-Medium'" font-size="14">BUTTON</text><path d="M32.8 49.6v36m-6-36h12m-12 36h12m100.3 10.2h-21m21-6v12m-21-12v12m-53-6h-21m21-6v12m-21-12v12" fill="none" stroke="#E818A8" stroke-miterlimit="10"/><text transform="translate(8.273 71.935)" fill="#E818A8" font-family="'Roboto-Regular'" font-size="10">36</text><text transform="translate(149.523 57.435)" fill="#E818A8" font-family="'Roboto-Regular'" font-size="10">50% of height radius</text><text transform="translate(149.523 69.435)" fill="#E818A8" font-family="'Roboto-Regular'" font-size="10">(18pd default)</text><text transform="translate(122.963 119.435)" fill="#E818A8" font-family="'Roboto-Regular'" font-size="10">24</text><text transform="translate(48.964 119.435)" fill="#E818A8" font-family="'Roboto-Regular'" font-size="10">24</text><path fill="none" stroke="#E818A8" stroke-miterlimit="10" d="M121.1 49.6c9.9 0 18 8.1 18 18"/></svg>