<?xml version="1.0" encoding="utf-8"?>
<!-- Generator: Adobe Illustrator 20.1.0, SVG Export Plug-In . SVG Version: 6.00 Build 0)  -->
<!DOCTYPE svg PUBLIC "-//W3C//DTD SVG 1.1//EN" "http://www.w3.org/Graphics/SVG/1.1/DTD/svg11.dtd">
<svg version="1.1" id="Layer_1" xmlns="http://www.w3.org/2000/svg" xmlns:xlink="http://www.w3.org/1999/xlink" x="0px" y="0px"
	 viewBox="0 0 470 227.7" enable-background="new 0 0 470 227.7" xml:space="preserve">
<path fill="#FFFFFF" d="M222.9,224H5.3c-1.1,0-2-0.9-2-2V68c0-1.1,0.9-2,2-2h217.6c1.1,0,2,0.9,2,2v154
	C224.9,223.1,224,224,222.9,224z"/>
<path fill="#FFFFFF" d="M462.5,224H244.9c-1.1,0-2-0.9-2-2V68c0-1.1,0.9-2,2-2h217.6c1.1,0,2,0.9,2,2v154
	C464.5,223.1,463.6,224,462.5,224z"/>
<g>
	<path fill="#1194F6" d="M155.6,163h-83c-1.1,0-2-0.9-2-2v-32c0-1.1,0.9-2,2-2h83c1.1,0,2,0.9,2,2v32
		C157.6,162.1,156.7,163,155.6,163z"/>
	<text transform="matrix(1 0 0 1 86.8466 150.0913)" fill="#FFFFFF" font-family="'Roboto-Medium'" font-size="14px">BUTTON</text>
</g>
<g>
	<path fill="#17BED7" d="M383.2,163h-59c-9.9,0-18-8.1-18-18l0,0c0-9.9,8.1-18,18-18h59c9.9,0,18,8.1,18,18l0,0
		C401.2,154.9,393.1,163,383.2,163z"/>
	<text transform="matrix(1 0 0 1 326.4152 150.0915)" fill="#FFFFFF" font-family="'Roboto-Medium'" font-size="14px">BUTTON</text>
</g>
<text transform="matrix(1 0 0 1 3.3411 54.6665)" font-family="'Roboto-Light'" font-size="16px">Material Design Button</text>
<text transform="matrix(1 0 0 1 242.9091 54.6665)" font-family="'Roboto-Light'" font-size="16px">Instabridge Button</text>
<text transform="matrix(1 0 0 1 3.3411 22)" font-family="'Roboto-Bold'" font-size="18px">Differences between MD and IB buttons</text>
</svg>
