<?xml version="1.0" encoding="utf-8"?>
<!-- Generator: Adobe Illustrator 20.1.0, SVG Export Plug-In . SVG Version: 6.00 Build 0)  -->
<!DOCTYPE svg PUBLIC "-//W3C//DTD SVG 1.1//EN" "http://www.w3.org/Graphics/SVG/1.1/DTD/svg11.dtd">
<svg version="1.1" id="Layer_1" xmlns="http://www.w3.org/2000/svg" xmlns:xlink="http://www.w3.org/1999/xlink" x="0px" y="0px"
	 viewBox="0 0 250 128" enable-background="new 0 0 250 128" xml:space="preserve">
<text transform="matrix(1 0 0 1 1.772 16.333)" font-family="'Roboto-Light'" font-size="16px">Measurements</text>
<g>
	<g>
		<path d="M121.1,85.6h-59c-9.9,0-18-8.1-18-18l0,0c0-9.9,8.1-18,18-18h59c9.9,0,18,8.1,18,18l0,0C139.1,77.5,131,85.6,121.1,85.6z"
			/>
		<text transform="matrix(1 0 0 1 64.3001 72.6565)" fill="#FFFFFF" font-family="'Roboto-Medium'" font-size="14px">BUTTON</text>
	</g>
	<g>
		<line fill="none" stroke="#E818A8" stroke-miterlimit="10" x1="32.8" y1="49.6" x2="32.8" y2="85.6"/>
		<line fill="none" stroke="#E818A8" stroke-miterlimit="10" x1="26.8" y1="49.6" x2="38.8" y2="49.6"/>
		<line fill="none" stroke="#E818A8" stroke-miterlimit="10" x1="26.8" y1="85.6" x2="38.8" y2="85.6"/>
	</g>
	<g>
		<line fill="none" stroke="#E818A8" stroke-miterlimit="10" x1="139.1" y1="95.8" x2="118.1" y2="95.8"/>
		<line fill="none" stroke="#E818A8" stroke-miterlimit="10" x1="139.1" y1="89.8" x2="139.1" y2="101.8"/>
		<line fill="none" stroke="#E818A8" stroke-miterlimit="10" x1="118.1" y1="89.8" x2="118.1" y2="101.8"/>
	</g>
	<g>
		<line fill="none" stroke="#E818A8" stroke-miterlimit="10" x1="65.1" y1="95.8" x2="44.1" y2="95.8"/>
		<line fill="none" stroke="#E818A8" stroke-miterlimit="10" x1="65.1" y1="89.8" x2="65.1" y2="101.8"/>
		<line fill="none" stroke="#E818A8" stroke-miterlimit="10" x1="44.1" y1="89.8" x2="44.1" y2="101.8"/>
	</g>
	<text transform="matrix(1 0 0 1 8.2725 71.9349)" fill="#E818A8" font-family="'Roboto-Regular'" font-size="10px">36</text>
	<text transform="matrix(1 0 0 1 149.5225 57.4349)" fill="#E818A8" font-family="'Roboto-Regular'" font-size="10px">50% of height radius </text>
	<text transform="matrix(1 0 0 1 149.5225 69.4349)" fill="#E818A8" font-family="'Roboto-Regular'" font-size="10px">(18pd default)</text>
	<text transform="matrix(1 0 0 1 122.9635 119.4349)" fill="#E818A8" font-family="'Roboto-Regular'" font-size="10px">24</text>
	<text transform="matrix(1 0 0 1 48.9635 119.4349)" fill="#E818A8" font-family="'Roboto-Regular'" font-size="10px">24</text>
	<path fill="none" stroke="#E818A8" stroke-miterlimit="10" d="M121.1,49.6c9.9,0,18,8.1,18,18l0,0"/>
</g>
</svg>
